<svg xmlns="http://www.w3.org/2000/svg" viewBox="0 0 85.04 34.02">
<style type="text/css">
	.st0{fill:#231F20;}
	.st1{fill:none;stroke:#231F20;stroke-width:0.25;stroke-miterlimit:10;}
</style>
<path id="line" class="st0" d="M42.75,23c-4.65,0-7.53-2-10.57-4.12c-0.59-0.41-1.2-0.83-1.83-1.25c-2.79-1.84-7.25-1.47-7.29-1.46
	L0,15.92h23.05c0.03,0,4.58-0.38,7.44,1.5c0.63,0.42,1.24,0.84,1.83,1.25c3.01,2.09,5.85,4.07,10.42,4.07
	c4.83,0,7.24-1.85,9.57-3.64c0.64-0.49,1.24-0.95,1.88-1.37c2.83-1.86,7.72-1.81,7.78-1.81h23.05l-23.05,0.25c0,0-0.02,0-0.04,0
	c-0.48,0-4.96,0.05-7.6,1.77c-0.64,0.42-1.24,0.88-1.87,1.36C50.11,21.12,47.67,23,42.75,23z"/>
<path id="circle" class="st1" d="M52.19,11.63c-0.11,2.77-1.85,7.21-4.21,8.27c-2.47,1.11-5.95,1.64-9.32,0.73
	c-3.35-0.91-5.89-5.91-6.13-7.98c-0.35-3,2.52-8.07,4.63-9.34c1.32-0.79,6.63-1.41,9.09-0.71C49.17,3.43,52.33,8.24,52.19,11.63z"/>
<g>
	<path id="p_x5F_1" class="st0" d="M37.46,7.47c1.02-1.34,2.96-2.39,3.42-2.9c0.5-0.55-0.16-0.81-0.54-0.93
		c-0.77-0.25-3.8,1.1-5.37,3.63c-1.25,2.01-1.31,3.8-1.15,5.27c0.08,0.74,1.98,0.57,2.17-0.16C36.43,10.74,36.08,9.29,37.46,7.47z"
		/>
	<path id="p_x5F_2" class="st0" d="M48.43,5.75c-2.25-1.95-3.48-2.57-4.74-2.37c-0.74,0.12-0.92,1.5-0.27,1.88
		c1.46,0.86,3.09,0.69,4.96,3.26c0.99,1.36,0.79,3.73,1.15,4.31c0.39,0.63,1.05,0.4,1.27,0.06C51.25,12.22,50.59,7.62,48.43,5.75z"
		/>
	<path id="p_x5F_3" class="st0" d="M48.25,15.51c-1.49,0.81-1.87,2.42-5.92,2.78c-3.27,0.29-5.01-2.12-5.7-2.11
		c-0.74,0.01-0.75,0.85-0.57,1.21c0.35,0.73,3,3.19,7.69,2.55c2.95-0.4,4.63-1.83,5.11-3.01C49.13,16.24,48.91,15.15,48.25,15.51z"
		/>
</g>
</svg>
